<?xml version="1.0" encoding="UTF-8"?>
<!DOCTYPE svg PUBLIC "-//W3C//DTD SVG 1.1//EN" "http://www.w3.org/Graphics/SVG/1.1/DTD/svg11.dtd">
<svg xmlns="http://www.w3.org/2000/svg" version="1.1" width="150px" height="151px" style="shape-rendering:geometricPrecision; text-rendering:geometricPrecision; image-rendering:optimizeQuality; fill-rule:evenodd; clip-rule:evenodd" xmlns:xlink="http://www.w3.org/1999/xlink">
<g><path style="opacity:0.999" fill="#7fb243" d="M 107.5,14.5 C 100.601,18.6349 93.9342,23.3016 87.5,28.5C 85.8333,29.1667 84.1667,29.8333 82.5,30.5C 79.5845,33.7499 76.5845,36.7499 73.5,39.5C 69.7852,39.423 66.1185,39.7564 62.5,40.5C 62.1583,39.6618 61.4916,39.3284 60.5,39.5C 60.1667,39.5 59.8333,39.5 59.5,39.5C 53.7738,35.7027 51.6071,30.3694 53,23.5C 56.4085,22.3781 59.9085,22.2114 63.5,23C 65.4048,24.4213 67.4048,25.588 69.5,26.5C 69.3284,27.4916 69.6618,28.1583 70.5,28.5C 70.5,28.8333 70.5,29.1667 70.5,29.5C 70.5,30.1667 70.8333,30.5 71.5,30.5C 71.3505,31.552 71.5172,32.552 72,33.5C 72.813,31.5643 73.313,29.5643 73.5,27.5C 79.0298,15.0627 88.6965,9.89599 102.5,12C 104.491,12.3736 106.158,13.207 107.5,14.5 Z"/></g>
<g><path style="opacity:0.637" fill="#654f55" d="M 73.5,27.5 C 73.313,29.5643 72.813,31.5643 72,33.5C 71.5172,32.552 71.3505,31.552 71.5,30.5C 70.8333,30.5 70.5,30.1667 70.5,29.5C 70.5,29.1667 70.5,28.8333 70.5,28.5C 70.6716,27.5084 70.3382,26.8417 69.5,26.5C 69.0711,22.9756 67.5711,19.9756 65,17.5C 64.2506,16.365 64.4173,15.365 65.5,14.5C 69.4415,18.0497 72.1081,22.3831 73.5,27.5 Z"/></g>
<g><path style="opacity:0.129" fill="#fcfcfb" d="M 100.5,33.5 C 100.842,32.6618 101.508,32.3284 102.5,32.5C 107.577,37.2194 112.91,41.7194 118.5,46C 120.037,47.1096 120.703,48.6096 120.5,50.5C 115.749,51.7105 111.416,53.7105 107.5,56.5C 106.5,56.1667 105.833,55.5 105.5,54.5C 108.606,53.2317 111.606,51.7317 114.5,50C 109.863,49.1706 105.196,48.6706 100.5,48.5C 99.8333,48.5 99.1667,48.5 98.5,48.5C 98.5,47.8333 98.5,47.1667 98.5,46.5C 104.505,47.0017 110.505,47.1683 116.5,47C 110.87,42.7092 105.537,38.2092 100.5,33.5 Z"/></g>
<g><path style="opacity:1" fill="#90c149" d="M 107.5,14.5 C 107.849,21.1129 106.182,27.1129 102.5,32.5C 101.508,32.3284 100.842,32.6618 100.5,33.5C 96.7439,37.7128 92.0772,40.3794 86.5,41.5C 84.5,41.5 82.5,41.5 80.5,41.5C 78.4006,40.3882 76.0673,39.7215 73.5,39.5C 76.5845,36.7499 79.5845,33.7499 82.5,30.5C 84.1667,29.8333 85.8333,29.1667 87.5,28.5C 93.9342,23.3016 100.601,18.6349 107.5,14.5 Z"/></g>
<g><path style="opacity:0.131" fill="#fefdfd" d="M 44.5,50.5 C 44.5,50.8333 44.5,51.1667 44.5,51.5C 43.8333,51.5 43.1667,51.5 42.5,51.5C 28.5425,45.4422 27.5425,46.4422 39.5,54.5C 39.5,55.8333 38.8333,56.5 37.5,56.5C 34.0257,53.1983 30.359,50.0316 26.5,47C 25.5165,46.4092 24.8499,46.7425 24.5,48C 26.2789,56.3157 27.6122,64.4823 28.5,72.5C 28.7947,74.7354 28.4614,76.7354 27.5,78.5C 26.0127,66.5904 24.0127,54.7571 21.5,43C 21.8333,42.5 22.1667,42 22.5,41.5C 29.8171,44.4958 37.1505,47.4958 44.5,50.5 Z"/></g>
<g><path style="opacity:0.036" fill="#fbfcf8" d="M 59.5,39.5 C 59.8333,39.5 60.1667,39.5 60.5,39.5C 60.5,39.8333 60.5,40.1667 60.5,40.5C 56.3453,41.8677 52.3453,43.5344 48.5,45.5C 43.6511,44.8335 38.6511,44.1668 33.5,43.5C 39.8072,42.6694 46.1406,42.1694 52.5,42C 54.8543,41.1529 57.1877,40.3195 59.5,39.5 Z"/></g>
<g><path style="opacity:1" fill="#fedaa5" d="M 73.5,39.5 C 76.0673,39.7215 78.4006,40.3882 80.5,41.5C 73.6384,46.7577 66.6384,51.7577 59.5,56.5C 56.6275,56.8023 53.9608,57.469 51.5,58.5C 46.0211,59.4313 40.6878,60.598 35.5,62C 38.863,58.748 41.863,55.248 44.5,51.5C 44.5,51.1667 44.5,50.8333 44.5,50.5C 45.8333,48.8333 47.1667,47.1667 48.5,45.5C 52.3453,43.5344 56.3453,41.8677 60.5,40.5C 61.1667,40.5 61.8333,40.5 62.5,40.5C 66.1185,39.7564 69.7852,39.423 73.5,39.5 Z"/></g>
<g><path style="opacity:1" fill="#fcb059" d="M 80.5,41.5 C 82.5,41.5 84.5,41.5 86.5,41.5C 90.4287,43.1485 94.4287,44.8152 98.5,46.5C 98.5,47.1667 98.5,47.8333 98.5,48.5C 94.6424,46.2017 90.6424,45.2017 86.5,45.5C 84.9907,44.1405 84.324,44.6405 84.5,47C 85.8881,51.6711 87.5548,56.1711 89.5,60.5C 89.5,61.1667 89.1667,61.5 88.5,61.5C 87.8478,60.2749 86.6811,59.6083 85,59.5C 76.4509,58.8019 67.9509,57.8019 59.5,56.5C 66.6384,51.7577 73.6384,46.7577 80.5,41.5 Z"/></g>
<g><path style="opacity:1" fill="#f88d1f" d="M 86.5,45.5 C 90.4732,49.3014 94.6398,52.9681 99,56.5C 99.4696,57.5768 99.3029,58.5768 98.5,59.5C 95.4299,59.3677 92.4299,59.701 89.5,60.5C 87.5548,56.1711 85.8881,51.6711 84.5,47C 84.324,44.6405 84.9907,44.1405 86.5,45.5 Z"/></g>
<g><path style="opacity:1" fill="#fca847" d="M 98.5,48.5 C 99.1667,48.5 99.8333,48.5 100.5,48.5C 102.167,50.5 103.833,52.5 105.5,54.5C 105.833,55.5 106.5,56.1667 107.5,56.5C 111.979,60.4533 114.645,65.4533 115.5,71.5C 115.557,72.609 115.89,73.609 116.5,74.5C 117.038,76.1172 117.371,77.7839 117.5,79.5C 117.328,80.4916 117.662,81.1583 118.5,81.5C 119.232,84.2658 119.232,86.9325 118.5,89.5C 118.5,90.1667 118.167,90.5 117.5,90.5C 115.821,90.1077 114.154,89.6077 112.5,89C 113.167,88.6667 113.833,88.3333 114.5,88C 112.167,87.6667 109.833,87.3333 107.5,87C 106.915,85.6976 106.249,84.531 105.5,83.5C 105.752,80.6802 105.252,78.0135 104,75.5C 102.612,74.4464 101.112,74.2797 99.5,75C 101.992,77.8118 103.492,80.9785 104,84.5C 101.123,80.582 98.6227,76.4153 96.5,72C 98.9054,71.8516 101.239,72.3516 103.5,73.5C 104.167,73.1667 104.833,72.8333 105.5,72.5C 104.738,68.8889 104.238,65.2222 104,61.5C 102.639,58.8821 100.806,58.2154 98.5,59.5C 99.3029,58.5768 99.4696,57.5768 99,56.5C 94.6398,52.9681 90.4732,49.3014 86.5,45.5C 90.6424,45.2017 94.6424,46.2017 98.5,48.5 Z"/></g>
<g><path style="opacity:1" fill="#fef2df" d="M 42.5,51.5 C 43.1667,51.5 43.8333,51.5 44.5,51.5C 41.863,55.248 38.863,58.748 35.5,62C 40.6878,60.598 46.0211,59.4313 51.5,58.5C 54.5983,58.4125 54.9316,58.9125 52.5,60C 53.3805,60.7083 54.0472,61.5416 54.5,62.5C 52.576,66.0171 50.9094,69.6837 49.5,73.5C 47.0228,77.1008 44.5228,80.7674 42,84.5C 41.51,85.7932 41.3433,87.1266 41.5,88.5C 40.272,96.8823 39.272,105.549 38.5,114.5C 37.5275,112.861 36.1942,111.527 34.5,110.5C 34.5,110.167 34.5,109.833 34.5,109.5C 33.7368,107.632 32.7368,105.965 31.5,104.5C 31.1667,103.833 30.8333,103.167 30.5,102.5C 30.5,101.833 30.5,101.167 30.5,100.5C 29.5592,98.9505 28.8925,97.2838 28.5,95.5C 28.7373,94.209 28.404,93.209 27.5,92.5C 27.1667,91.8333 26.8333,91.1667 26.5,90.5C 27.5063,89.6043 27.5063,88.9377 26.5,88.5C 25.375,87.3478 25.375,86.3478 26.5,85.5C 31.0152,86.8124 35.6819,86.8124 40.5,85.5C 38.8084,79.8716 37.3084,74.2049 36,68.5C 35.4785,65.4176 33.9785,64.4176 31.5,65.5C 32.6895,61.974 34.6895,58.974 37.5,56.5C 38.8333,56.5 39.5,55.8333 39.5,54.5C 40.8333,53.8333 41.8333,52.8333 42.5,51.5 Z"/></g>
<g><path style="opacity:1" fill="#ffdab0" d="M 49.5,73.5 C 50.9094,69.6837 52.576,66.0171 54.5,62.5C 56.0542,61.0858 57.3875,59.4192 58.5,57.5C 61.4416,62.8003 64.1083,68.3003 66.5,74C 66.1667,74.5 65.8333,75 65.5,75.5C 62.8037,74.1491 60.4704,72.3157 58.5,70C 57.8333,69.3333 57.1667,69.3333 56.5,70C 58.539,72.3745 60.8723,74.3745 63.5,76C 62.3279,76.4186 61.3279,77.0853 60.5,78C 62.2251,77.5913 63.8918,77.7579 65.5,78.5C 64.627,80.4134 63.627,82.2467 62.5,84C 59.666,84.0454 57.166,84.8787 55,86.5C 52.9307,85.7362 50.764,85.2362 48.5,85C 51.2019,83.6601 53.8685,82.3267 56.5,81C 55.1011,80.4054 53.7678,80.5721 52.5,81.5C 51.4933,78.8103 50.4933,76.1437 49.5,73.5 Z"/></g>
<g><path style="opacity:1" fill="#fa9e3d" d="M 105.5,83.5 C 105.5,84.8333 105.5,86.1667 105.5,87.5C 98.6221,87.2233 91.7888,86.5566 85,85.5C 83.5,86 82,86.5 80.5,87C 81.8333,88.3333 83.1667,89.6667 84.5,91C 81.8833,90.2689 79.55,88.7689 77.5,86.5C 76.0052,85.2947 74.6719,85.2947 73.5,86.5C 72.8333,86.5 72.5,86.1667 72.5,85.5C 72.5,85.1667 72.5,84.8333 72.5,84.5C 77.8744,76.8041 83.2077,69.1375 88.5,61.5C 89.1667,61.5 89.5,61.1667 89.5,60.5C 92.4299,59.701 95.4299,59.3677 98.5,59.5C 100.806,58.2154 102.639,58.8821 104,61.5C 104.238,65.2222 104.738,68.8889 105.5,72.5C 104.833,72.8333 104.167,73.1667 103.5,73.5C 101.239,72.3516 98.9054,71.8516 96.5,72C 98.6227,76.4153 101.123,80.582 104,84.5C 103.492,80.9785 101.992,77.8118 99.5,75C 101.112,74.2797 102.612,74.4464 104,75.5C 105.252,78.0135 105.752,80.6802 105.5,83.5 Z"/></g>
<g><path style="opacity:1" fill="#fee8cb" d="M 26.5,85.5 C 26.448,83.0971 26.7814,80.7638 27.5,78.5C 28.4614,76.7354 28.7947,74.7354 28.5,72.5C 29.3485,70.1124 30.3485,67.7791 31.5,65.5C 33.9785,64.4176 35.4785,65.4176 36,68.5C 37.3084,74.2049 38.8084,79.8716 40.5,85.5C 35.6819,86.8124 31.0152,86.8124 26.5,85.5 Z"/></g>
<g><path style="opacity:0.132" fill="#fdfdfd" d="M 115.5,71.5 C 122.968,76.7384 130.634,81.7384 138.5,86.5C 139.583,87.365 139.749,88.365 139,89.5C 132.833,99.1667 126.667,108.833 120.5,118.5C 112.31,121.033 103.977,123.033 95.5,124.5C 95.9731,123.094 96.9731,122.427 98.5,122.5C 99.1667,122.5 99.5,122.167 99.5,121.5C 105.195,120.55 110.862,119.384 116.5,118C 113.949,115.9 111.283,114.067 108.5,112.5C 108.5,111.167 109.167,110.5 110.5,110.5C 113.539,112.456 116.372,114.79 119,117.5C 124.106,108.731 129.606,100.231 135.5,92C 128.393,94.2082 121.393,97.0415 114.5,100.5C 114.557,99.391 114.89,98.391 115.5,97.5C 121.35,95.4914 127.017,92.9914 132.5,90C 127.537,90.3497 122.537,90.8497 117.5,91.5C 117.5,91.1667 117.5,90.8333 117.5,90.5C 118.167,90.5 118.5,90.1667 118.5,89.5C 123.241,89.0847 127.907,88.2513 132.5,87C 127.924,84.8765 123.257,83.0431 118.5,81.5C 117.662,81.1583 117.328,80.4916 117.5,79.5C 120.425,80.639 123.425,81.139 126.5,81C 123.014,79.004 119.681,76.8373 116.5,74.5C 115.89,73.609 115.557,72.609 115.5,71.5 Z"/></g>
<g><path style="opacity:1" fill="#fee1b9" d="M 59.5,56.5 C 67.9509,57.8019 76.4509,58.8019 85,59.5C 86.6811,59.6083 87.8478,60.2749 88.5,61.5C 83.2077,69.1375 77.8744,76.8041 72.5,84.5C 71.3647,81.9227 69.5313,79.9227 67,78.5C 66.1667,80.1667 65.3333,81.8333 64.5,83.5C 65.09,84.7989 66.09,85.6322 67.5,86C 65.567,86.2511 63.7337,86.7511 62,87.5C 60.2776,90.2791 59.1109,93.2791 58.5,96.5C 60.5273,96.3379 62.5273,96.5045 64.5,97C 61.8333,97.6667 59.1667,98.3333 56.5,99C 55.1258,101.583 53.6258,104.083 52,106.5C 49.2622,100.02 45.7622,94.02 41.5,88.5C 41.3433,87.1266 41.51,85.7932 42,84.5C 44.5228,80.7674 47.0228,77.1008 49.5,73.5C 50.4933,76.1437 51.4933,78.8103 52.5,81.5C 53.7678,80.5721 55.1011,80.4054 56.5,81C 53.8685,82.3267 51.2019,83.6601 48.5,85C 50.764,85.2362 52.9307,85.7362 55,86.5C 57.166,84.8787 59.666,84.0454 62.5,84C 63.627,82.2467 64.627,80.4134 65.5,78.5C 63.8918,77.7579 62.2251,77.5913 60.5,78C 61.3279,77.0853 62.3279,76.4186 63.5,76C 60.8723,74.3745 58.539,72.3745 56.5,70C 57.1667,69.3333 57.8333,69.3333 58.5,70C 60.4704,72.3157 62.8037,74.1491 65.5,75.5C 65.8333,75 66.1667,74.5 66.5,74C 64.1083,68.3003 61.4416,62.8003 58.5,57.5C 57.3875,59.4192 56.0542,61.0858 54.5,62.5C 54.0472,61.5416 53.3805,60.7083 52.5,60C 54.9316,58.9125 54.5983,58.4125 51.5,58.5C 53.9608,57.469 56.6275,56.8023 59.5,56.5 Z"/></g>
<g><path style="opacity:1" fill="#f78d1f" d="M 105.5,87.5 C 107.513,92.488 107.847,97.6547 106.5,103C 108.816,105.152 109.15,107.652 107.5,110.5C 100.954,112.427 94.4543,114.427 88,116.5C 87.6174,115.944 87.1174,115.611 86.5,115.5C 82.3783,105.827 78.045,96.1603 73.5,86.5C 74.6719,85.2947 76.0052,85.2947 77.5,86.5C 79.55,88.7689 81.8833,90.2689 84.5,91C 83.1667,89.6667 81.8333,88.3333 80.5,87C 82,86.5 83.5,86 85,85.5C 91.7888,86.5566 98.6221,87.2233 105.5,87.5 Z"/></g>
<g><path style="opacity:1" fill="#fcbe72" d="M 72.5,85.5 C 72.5,86.1667 72.8333,86.5 73.5,86.5C 78.045,96.1603 82.3783,105.827 86.5,115.5C 81.0771,116.526 75.7438,118.193 70.5,120.5C 72.6737,118.919 75.0071,117.419 77.5,116C 71.1914,114.432 64.8581,113.265 58.5,112.5C 62.9303,103.304 67.597,94.3038 72.5,85.5 Z"/></g>
<g><path style="opacity:0.123" fill="#fefdfd" d="M 26.5,88.5 C 27.5063,88.9377 27.5063,89.6043 26.5,90.5C 24.3702,92.1271 22.3702,93.9604 20.5,96C 21.5,96.6667 22.5,96.6667 23.5,96C 25.3187,95.2597 26.6521,94.0931 27.5,92.5C 28.404,93.209 28.7373,94.209 28.5,95.5C 24.8599,97.3201 21.1932,99.1534 17.5,101C 21.7738,100.709 26.1071,100.543 30.5,100.5C 30.5,101.167 30.5,101.833 30.5,102.5C 24.3213,102.217 18.3213,103.05 12.5,105C 19.6987,113.899 26.532,123.066 33,132.5C 32.9165,123.161 32.4165,113.828 31.5,104.5C 32.7368,105.965 33.7368,107.632 34.5,109.5C 33.1667,109.833 33.1667,110.167 34.5,110.5C 34.7683,113.119 34.435,115.619 33.5,118C 34.8401,123.042 35.6735,128.209 36,133.5C 38.767,128.965 41.267,124.299 43.5,119.5C 44.1667,119.5 44.8333,119.5 45.5,119.5C 45.5,119.833 45.5,120.167 45.5,120.5C 43.932,123.921 42.0987,127.255 40,130.5C 39.2506,131.635 39.4173,132.635 40.5,133.5C 45.4107,131.538 50.0773,129.204 54.5,126.5C 54.8333,126.5 55.1667,126.5 55.5,126.5C 55.5,127.167 55.8333,127.5 56.5,127.5C 53.5373,129.786 50.204,131.619 46.5,133C 52.6852,132.45 58.6852,131.284 64.5,129.5C 65.1667,129.5 65.8333,129.5 66.5,129.5C 67.791,129.263 68.791,129.596 69.5,130.5C 57.8648,133.436 46.1982,135.936 34.5,138C 26.2891,126.412 17.9557,114.912 9.5,103.5C 14.8839,98.1121 20.5506,93.1121 26.5,88.5 Z"/></g>
<g><path style="opacity:1" fill="#fed5a1" d="M 72.5,84.5 C 72.5,84.8333 72.5,85.1667 72.5,85.5C 67.597,94.3038 62.9303,103.304 58.5,112.5C 53.9336,112.975 49.4336,112.975 45,112.5C 42.8886,112.701 41.0552,113.367 39.5,114.5C 39.1667,114.5 38.8333,114.5 38.5,114.5C 39.272,105.549 40.272,96.8823 41.5,88.5C 45.7622,94.02 49.2622,100.02 52,106.5C 53.6258,104.083 55.1258,101.583 56.5,99C 59.1667,98.3333 61.8333,97.6667 64.5,97C 62.5273,96.5045 60.5273,96.3379 58.5,96.5C 59.1109,93.2791 60.2776,90.2791 62,87.5C 63.7337,86.7511 65.567,86.2511 67.5,86C 66.09,85.6322 65.09,84.7989 64.5,83.5C 65.3333,81.8333 66.1667,80.1667 67,78.5C 69.5313,79.9227 71.3647,81.9227 72.5,84.5 Z"/></g>
<g><path style="opacity:1" fill="#fcb360" d="M 58.5,112.5 C 64.8581,113.265 71.1914,114.432 77.5,116C 75.0071,117.419 72.6737,118.919 70.5,120.5C 68.3263,122.081 65.9929,123.581 63.5,125C 63.9743,126.729 64.9743,127.895 66.5,128.5C 66.5,128.833 66.5,129.167 66.5,129.5C 65.8333,129.5 65.1667,129.5 64.5,129.5C 61.779,129.037 59.1123,128.371 56.5,127.5C 55.8333,127.5 55.5,127.167 55.5,126.5C 57.337,126.361 57.6704,125.694 56.5,124.5C 53.1667,122.5 49.8333,120.5 46.5,118.5C 45.8933,118.624 45.56,118.957 45.5,119.5C 44.8333,119.5 44.1667,119.5 43.5,119.5C 42.1667,117.833 40.8333,116.167 39.5,114.5C 41.0552,113.367 42.8886,112.701 45,112.5C 49.4336,112.975 53.9336,112.975 58.5,112.5 Z"/></g>
<g><path style="opacity:1" fill="#fcaa4a" d="M 105.5,83.5 C 106.249,84.531 106.915,85.6976 107.5,87C 109.833,87.3333 112.167,87.6667 114.5,88C 113.833,88.3333 113.167,88.6667 112.5,89C 114.154,89.6077 115.821,90.1077 117.5,90.5C 117.5,90.8333 117.5,91.1667 117.5,91.5C 117.029,93.5786 116.363,95.5786 115.5,97.5C 114.89,98.391 114.557,99.391 114.5,100.5C 113.214,103.756 111.88,107.089 110.5,110.5C 109.167,110.5 108.5,111.167 108.5,112.5C 105.167,115.167 102.167,118.167 99.5,121.5C 98.8333,121.5 98.5,121.833 98.5,122.5C 96.9731,122.427 95.9731,123.094 95.5,124.5C 94.7377,126.262 93.4044,127.262 91.5,127.5C 90.142,124.126 88.8086,120.793 87.5,117.5C 85.6916,117.491 84.0249,117.991 82.5,119C 77.4356,122.191 72.4356,125.358 67.5,128.5C 67.1667,128.5 66.8333,128.5 66.5,128.5C 64.9743,127.895 63.9743,126.729 63.5,125C 65.9929,123.581 68.3263,122.081 70.5,120.5C 75.7438,118.193 81.0771,116.526 86.5,115.5C 87.1174,115.611 87.6174,115.944 88,116.5C 94.4543,114.427 100.954,112.427 107.5,110.5C 109.15,107.652 108.816,105.152 106.5,103C 107.847,97.6547 107.513,92.488 105.5,87.5C 105.5,86.1667 105.5,84.8333 105.5,83.5 Z"/></g>
<g><path style="opacity:1" fill="#f88b1a" d="M 91.5,127.5 C 90.8333,127.5 90.1667,127.5 89.5,127.5C 82.1729,127.944 74.8395,128.277 67.5,128.5C 72.4356,125.358 77.4356,122.191 82.5,119C 84.0249,117.991 85.6916,117.491 87.5,117.5C 88.8086,120.793 90.142,124.126 91.5,127.5 Z"/></g>
<g><path style="opacity:1" fill="#fb9a33" d="M 55.5,126.5 C 55.1667,126.5 54.8333,126.5 54.5,126.5C 50.4272,126.092 47.4272,124.092 45.5,120.5C 45.5,120.167 45.5,119.833 45.5,119.5C 45.56,118.957 45.8933,118.624 46.5,118.5C 49.8333,120.5 53.1667,122.5 56.5,124.5C 57.6704,125.694 57.337,126.361 55.5,126.5 Z"/></g>
<g><path style="opacity:0.631" fill="#ffc63e" d="M 89.5,127.5 C 83.1507,129.764 76.484,130.764 69.5,130.5C 68.791,129.596 67.791,129.263 66.5,129.5C 66.5,129.167 66.5,128.833 66.5,128.5C 66.8333,128.5 67.1667,128.5 67.5,128.5C 74.8395,128.277 82.1729,127.944 89.5,127.5 Z"/></g>
</svg>
